<?xml version="1.0" encoding="UTF-8"?>
<svg xmlns="http://www.w3.org/2000/svg"
     viewBox="0 0 1877 1877">
  <g transform="translate(-81, 1748) scale(1, -1)">
    <path d="M1184.0 1698.0Q1448.0 1698.0 1576.0 1465.0Q1660.0 1310.0 1660.0 1082.0Q1660.0 787.0 1559.0 514.0Q1456.0 237.0 1276.0 80.0Q1092.0 -79.0 862.0 -79.0Q612.0 -79.0 483.0 117.0Q379.0 274.0 379.0 532.0Q379.0 945.0 577.0 1283.0Q715.0 1519.0 909.0 1626.0Q1041.0 1698.0 1184.0 1698.0Z M625.0 918.0H1466.0Q1480.0 1021.0 1480.0 1093.0Q1480.0 1304.0 1399.0 1423.0Q1320.0 1540.0 1182.0 1540.0Q969.0 1540.0 807.0 1312.0Q702.0 1165.0 625.0 918.0Z M596.0 775.0Q564.0 609.0 564.0 504.0Q564.0 318.0 634.0 206.0Q714.0 77.0 862.0 77.0Q1067.0 77.0 1228.0 280.0Q1366.0 454.0 1440.0 775.0Z" fill="#15130f"/>
    <path d="M625.0 918.0 596.2490234375 775.0H1440.0L1465.24365234375 918.0Z" fill="#326E2F"/>
    <path d="M1403.832763671875 639.2076416015625 1580.22021484375 575.0078735351562Q1612.348388671875 673.5944213867188 1631.538330078125 775.0H1440.0Q1423.5062255859375 703.45263671875 1403.832763671875 639.2076416015625Z" fill="#CB0B0A"/>
  </g>
</svg>
